<?xml version="1.0" encoding="iso-8859-1"?>
<!-- Generator: Adobe Illustrator 19.0.0, SVG Export Plug-In . SVG Version: 6.00 Build 0)  -->
<svg version="1.1" id="Capa_1" xmlns="http://www.w3.org/2000/svg" xmlns:xlink="http://www.w3.org/1999/xlink" x="0px" y="0px"
	 viewBox="0 0 385.201 385.201" style="enable-background:new 0 0 385.201 385.201;" xml:space="preserve">
<g>
	<path id="Border_Arrow_Left" d="M3.543,201.729L183.323,381.51c2.43,2.43,5.618,3.621,8.794,3.597c0.096,0,0.168,0.048,0.265,0.048
		h180.455c6.641,0,12.03-5.39,12.03-12.03c0-0.096-0.048-0.168-0.048-0.265c0.024-3.176-1.167-6.364-3.597-8.794L209.826,192.682
		L381.583,20.938c4.824-4.824,4.824-12.644,0-17.468c-2.863-2.863-6.749-3.814-10.466-3.284H194.139
		c-3.717-0.529-7.603,0.421-10.466,3.284L3.555,183.575c-2.502,2.502-3.645,5.799-3.549,9.083
		C-0.091,195.93,1.04,199.227,3.543,201.729z M197.82,24.246h145.519L184.009,183.575c-2.502,2.502-3.645,5.799-3.549,9.083
		c-0.096,3.272,1.047,6.569,3.549,9.071l159.365,159.365H197.784L29.372,192.682L197.82,24.246z"/>
	<g>
	</g>
	<g>
	</g>
	<g>
	</g>
	<g>
	</g>
	<g>
	</g>
	<g>
	</g>
</g>
<g>
</g>
<g>
</g>
<g>
</g>
<g>
</g>
<g>
</g>
<g>
</g>
<g>
</g>
<g>
</g>
<g>
</g>
<g>
</g>
<g>
</g>
<g>
</g>
<g>
</g>
<g>
</g>
<g>
</g>
</svg>
